<?xml version="1.0" encoding="utf-8"?>
<!-- Generator: Adobe Illustrator 27.7.0, SVG Export Plug-In . SVG Version: 6.00 Build 0)  -->
<svg version="1.1" id="Layer_1" xmlns="http://www.w3.org/2000/svg" xmlns:xlink="http://www.w3.org/1999/xlink" x="0px" y="0px"
	 viewBox="0 0 625.3 104.2" style="enable-background:new 0 0 625.3 104.2;" xml:space="preserve">
<style type="text/css">
	.st0{clip-path:url(#SVGID_00000016047023929288602430000003849543999448167296_);}
	.st1{clip-path:url(#SVGID_00000066506210772926600420000003508031494954719915_);fill-rule:evenodd;clip-rule:evenodd;}
	
		.st2{clip-path:url(#SVGID_00000066506210772926600420000003508031494954719915_);fill-rule:evenodd;clip-rule:evenodd;fill:#72808A;}
	.st3{fill:none;stroke:#818B8C;stroke-miterlimit:10;}
	.st4{clip-path:url(#SVGID_00000067216003143168962650000009735838002016517043_);}
	.st5{clip-path:url(#SVGID_00000082370787636671891350000007498532455421554074_);}
	.st6{clip-path:url(#SVGID_00000082370787636671891350000007498532455421554074_);fill:#B09160;}
	.st7{clip-path:url(#SVGID_00000082370787636671891350000007498532455421554074_);fill-rule:evenodd;clip-rule:evenodd;}
	
		.st8{clip-path:url(#SVGID_00000082370787636671891350000007498532455421554074_);fill-rule:evenodd;clip-rule:evenodd;fill:#BEB79B;}
</style>
<g>
	<g id="APL_logo_CMYK_1_">
		<g>
			<defs>
				<rect id="SVGID_1_" y="4.8" width="278.2" height="95.1"/>
			</defs>
			<clipPath id="SVGID_00000147899406674357252880000007359388689209322662_">
				<use xlink:href="#SVGID_1_"  style="overflow:visible;"/>
			</clipPath>
			<g style="clip-path:url(#SVGID_00000147899406674357252880000007359388689209322662_);">
				<defs>
					<rect id="SVGID_00000102546040835326970490000008415785460533367721_" y="4.8" width="278.2" height="95.1"/>
				</defs>
				<clipPath id="SVGID_00000042015086508591350750000002699434743253086901_">
					<use xlink:href="#SVGID_00000102546040835326970490000008415785460533367721_"  style="overflow:visible;"/>
				</clipPath>
				
					<path style="clip-path:url(#SVGID_00000042015086508591350750000002699434743253086901_);fill-rule:evenodd;clip-rule:evenodd;" d="
					M209.3,24.9c0,2.4-0.5,4.7-1.4,7c-0.9,2.2-2.3,4.3-4.3,6.3c-2,1.9-4.7,3.5-8.1,4.7c-3.4,1.2-7.4,1.8-12,1.8h-13.9v23.9h-21.2
					V4.8h35c4.6,0,8.6,0.6,12,1.8c3.4,1.2,6.1,2.8,8.1,4.8c2,2,3.4,4.1,4.3,6.4C208.8,20.1,209.3,22.5,209.3,24.9 M187,25.2
					c0-3-1-5-2.9-6.1c-1.9-1.1-5.4-1.7-10.4-1.7h-4.4v15.1h4.5c3.4,0,6.1-0.2,7.9-0.6c1.8-0.4,3.2-1.1,4-2.2
					C186.6,28.7,187,27.1,187,25.2 M266.3,53.3h-32.2V4.8H213v63.8h53.3V53.3z M144.3,68.6h-19.7l-5.5-12.9H94.1l-5.6,12.9H68.8
					L96,4.8h21.3L144.3,68.6z M114.5,44.3l-8.2-23.2l-8.3,23.2H114.5z M273.8,68.6c-0.6,0-1.2-0.1-1.8-0.4c-0.5-0.2-1-0.6-1.4-1
					c-0.4-0.4-0.7-0.9-1-1.4c-0.2-0.5-0.4-1.1-0.4-1.7c0-0.6,0.1-1.2,0.4-1.7c0.2-0.5,0.6-1,1-1.4c0.4-0.4,0.9-0.7,1.4-1
					c0.5-0.2,1.1-0.4,1.8-0.4c0.6,0,1.2,0.1,1.7,0.4c0.5,0.2,1,0.6,1.4,1c0.4,0.4,0.7,0.9,1,1.4c0.2,0.5,0.3,1.1,0.3,1.7
					c0,0.6-0.1,1.2-0.3,1.7c-0.2,0.5-0.6,1-1,1.4c-0.4,0.4-0.9,0.7-1.4,1C274.9,68.5,274.4,68.6,273.8,68.6 M273.8,68
					c0.5,0,1-0.1,1.5-0.3c0.5-0.2,0.9-0.5,1.2-0.8c0.3-0.4,0.6-0.8,0.8-1.2c0.2-0.5,0.3-1,0.3-1.5c0-0.5-0.1-1.1-0.3-1.5
					c-0.2-0.5-0.4-0.9-0.8-1.2c-0.3-0.3-0.7-0.6-1.2-0.8c-0.5-0.2-1-0.3-1.5-0.3c-0.5,0-1,0.1-1.5,0.3c-0.5,0.2-0.9,0.5-1.2,0.8
					c-0.3,0.3-0.6,0.8-0.8,1.2c-0.2,0.5-0.3,1-0.3,1.5c0,0.6,0.1,1.1,0.3,1.5c0.2,0.5,0.5,0.9,0.8,1.2c0.3,0.4,0.7,0.6,1.2,0.8
					C272.7,67.9,273.2,68,273.8,68 M276,66.6h-0.7l-1.4-2.3h-1.1v2.3h-0.6v-5h2.2c0.7,0,1.1,0.1,1.4,0.4c0.3,0.2,0.4,0.6,0.4,1
					c0,0.2,0,0.5-0.1,0.6c-0.1,0.2-0.2,0.3-0.3,0.4c-0.1,0.1-0.3,0.2-0.5,0.2c-0.2,0.1-0.4,0.1-0.6,0.1L276,66.6z M273.6,63.8h0.6
					c0.2,0,0.4,0,0.6-0.1c0.2,0,0.3-0.1,0.4-0.3c0.1-0.1,0.2-0.3,0.2-0.6c0-0.2,0-0.4-0.1-0.5c-0.1-0.1-0.2-0.2-0.3-0.3
					c-0.1-0.1-0.3-0.1-0.4-0.1c-0.1,0-0.3,0-0.4,0h-1.4v1.8H273.6z M3.5,99.6L0,85.1h3l2.2,9.9l2.6-9.9h3.5l2.5,10.1l2.2-10.1H19
					l-3.5,14.5h-3.1L9.5,88.8L6.6,99.6H3.5z M24.9,85.1h2.9v14.5h-2.9V85.1z M35.1,99.6V85.1h2.8l5.9,9.7v-9.7h2.7v14.5h-2.9
					l-5.8-9.4v9.4H35.1z M54.1,85.1h5.3c1.2,0,2.1,0.1,2.8,0.3c0.8,0.3,1.6,0.7,2.2,1.3c0.6,0.6,1.1,1.4,1.4,2.3
					c0.3,0.9,0.5,2.1,0.5,3.4c0,1.2-0.1,2.2-0.4,3.1c-0.4,1.1-0.9,1.9-1.6,2.6c-0.5,0.5-1.2,0.9-2.1,1.2c-0.6,0.2-1.5,0.3-2.6,0.3
					h-5.5V85.1z M57,87.6v9.6h2.2c0.8,0,1.4,0,1.8-0.1c0.5-0.1,0.9-0.3,1.2-0.6c0.3-0.3,0.6-0.7,0.8-1.4c0.2-0.6,0.3-1.5,0.3-2.7
					s-0.1-2-0.3-2.6c-0.2-0.6-0.5-1.1-0.8-1.4c-0.4-0.3-0.8-0.6-1.4-0.7c-0.4-0.1-1.2-0.1-2.4-0.1H57z M72.6,92.5
					c0-1.5,0.2-2.7,0.7-3.7c0.3-0.7,0.8-1.4,1.3-2c0.6-0.6,1.2-1,1.9-1.3c0.9-0.4,1.9-0.6,3.1-0.6c2.1,0,3.8,0.7,5.1,2
					c1.3,1.3,1.9,3.2,1.9,5.5c0,2.3-0.6,4.2-1.9,5.5c-1.3,1.3-3,2-5.1,2c-2.2,0-3.9-0.7-5.1-2C73.2,96.6,72.6,94.8,72.6,92.5
					 M75.6,92.4c0,1.6,0.4,2.9,1.1,3.7c0.8,0.8,1.7,1.3,2.9,1.3c1.2,0,2.1-0.4,2.9-1.3c0.7-0.8,1.1-2.1,1.1-3.8
					c0-1.7-0.4-2.9-1.1-3.7c-0.7-0.8-1.7-1.2-2.9-1.2c-1.2,0-2.2,0.4-2.9,1.2C75.9,89.5,75.6,90.7,75.6,92.4 M95.4,99.6l-3.5-14.5h3
					l2.2,9.9l2.6-9.9h3.5l2.5,10.1l2.2-10.1h2.9l-3.5,14.5h-3.1l-2.9-10.8l-2.9,10.8H95.4z M126.2,94.9l2.8-0.3c0.2,1,0.5,1.7,1,2.1
					s1.2,0.7,2.1,0.7c0.9,0,1.7-0.2,2.1-0.6c0.5-0.4,0.7-0.9,0.7-1.4c0-0.3-0.1-0.6-0.3-0.9c-0.2-0.2-0.6-0.4-1.1-0.6
					c-0.3-0.1-1.1-0.3-2.3-0.6c-1.6-0.4-2.7-0.9-3.3-1.4c-0.9-0.8-1.3-1.8-1.3-2.9c0-0.7,0.2-1.4,0.6-2.1c0.4-0.6,1-1.1,1.8-1.5
					c0.8-0.3,1.7-0.5,2.8-0.5c1.8,0,3.2,0.4,4.1,1.2c0.9,0.8,1.4,1.9,1.4,3.2l-2.9,0.1c-0.1-0.7-0.4-1.3-0.8-1.6
					c-0.4-0.3-1-0.5-1.9-0.5c-0.9,0-1.5,0.2-2,0.5c-0.3,0.2-0.5,0.5-0.5,0.9c0,0.3,0.1,0.6,0.4,0.9c0.4,0.3,1.3,0.6,2.7,1
					c1.4,0.3,2.5,0.7,3.2,1c0.7,0.4,1.2,0.8,1.6,1.5c0.4,0.6,0.6,1.4,0.6,2.3c0,0.8-0.2,1.6-0.7,2.3c-0.5,0.7-1.1,1.3-2,1.6
					c-0.8,0.4-1.9,0.5-3.2,0.5c-1.8,0-3.2-0.4-4.2-1.3C127,97.8,126.4,96.5,126.2,94.9 M144.3,92.5c0-1.5,0.2-2.7,0.7-3.7
					c0.3-0.7,0.8-1.4,1.3-2c0.6-0.6,1.2-1,1.9-1.3c0.9-0.4,1.9-0.6,3.1-0.6c2.1,0,3.8,0.7,5.1,2c1.3,1.3,1.9,3.2,1.9,5.5
					c0,2.3-0.6,4.2-1.9,5.5c-1.3,1.3-3,2-5.1,2c-2.2,0-3.9-0.7-5.1-2C145,96.6,144.3,94.8,144.3,92.5 M147.3,92.4
					c0,1.6,0.4,2.9,1.1,3.7c0.8,0.8,1.7,1.3,2.9,1.3c1.2,0,2.1-0.4,2.9-1.3c0.7-0.8,1.1-2.1,1.1-3.8c0-1.7-0.4-2.9-1.1-3.7
					c-0.7-0.8-1.7-1.2-2.9-1.2c-1.2,0-2.2,0.4-2.9,1.2C147.7,89.5,147.3,90.7,147.3,92.4 M165.2,99.6V85.3h2.9v11.9h7.3v2.4H165.2z
					 M181.9,85.1h2.9V93c0,1.2,0,2.1,0.1,2.4c0.1,0.6,0.4,1.1,0.9,1.4c0.5,0.4,1.1,0.5,1.9,0.5c0.8,0,1.5-0.2,1.9-0.5
					c0.4-0.3,0.7-0.8,0.8-1.2c0.1-0.5,0.1-1.3,0.1-2.5v-8h2.9v7.6c0,1.7-0.1,3-0.2,3.7c-0.2,0.7-0.4,1.3-0.9,1.8
					c-0.4,0.5-1,0.9-1.7,1.2c-0.7,0.3-1.6,0.4-2.8,0.4c-1.4,0-2.4-0.2-3.1-0.5c-0.7-0.3-1.3-0.7-1.7-1.2c-0.4-0.5-0.7-1-0.8-1.6
					c-0.2-0.8-0.3-2.1-0.3-3.7V85.1z M204.2,99.6v-12h-4.3v-2.4h11.5v2.4h-4.3v12H204.2z M217.7,85.1h2.9v14.5h-2.9V85.1z
					 M227.3,92.5c0-1.5,0.2-2.7,0.7-3.7c0.3-0.7,0.8-1.4,1.3-2c0.6-0.6,1.2-1,1.9-1.3c0.9-0.4,1.9-0.6,3.1-0.6c2.1,0,3.8,0.7,5.1,2
					c1.3,1.3,1.9,3.2,1.9,5.5c0,2.3-0.6,4.2-1.9,5.5c-1.3,1.3-3,2-5.1,2c-2.2,0-3.9-0.7-5.1-2C227.9,96.6,227.3,94.8,227.3,92.5
					 M230.3,92.4c0,1.6,0.4,2.9,1.1,3.7c0.8,0.8,1.7,1.3,2.9,1.3c1.2,0,2.1-0.4,2.9-1.3c0.7-0.8,1.1-2.1,1.1-3.8
					c0-1.7-0.4-2.9-1.1-3.7c-0.7-0.8-1.7-1.2-2.9-1.2c-1.2,0-2.2,0.4-2.9,1.2C230.6,89.5,230.3,90.7,230.3,92.4 M248.1,99.6V85.1
					h2.8l5.9,9.7v-9.7h2.7v14.5h-2.9l-5.8-9.4v9.4H248.1z M266.4,94.9l2.8-0.3c0.2,1,0.5,1.7,1,2.1c0.5,0.4,1.2,0.7,2.1,0.7
					c0.9,0,1.7-0.2,2.1-0.6c0.5-0.4,0.7-0.9,0.7-1.4c0-0.3-0.1-0.6-0.3-0.9c-0.2-0.2-0.6-0.4-1.1-0.6c-0.3-0.1-1.1-0.3-2.3-0.6
					c-1.6-0.4-2.7-0.9-3.3-1.4c-0.9-0.8-1.3-1.8-1.3-2.9c0-0.7,0.2-1.4,0.6-2.1c0.4-0.6,1-1.1,1.8-1.5c0.8-0.3,1.7-0.5,2.8-0.5
					c1.8,0,3.2,0.4,4.1,1.2c0.9,0.8,1.4,1.9,1.4,3.2l-2.9,0.1c-0.1-0.7-0.4-1.3-0.8-1.6c-0.4-0.3-1-0.5-1.9-0.5
					c-0.8,0-1.5,0.2-2,0.5c-0.3,0.2-0.5,0.5-0.5,0.9c0,0.3,0.1,0.6,0.4,0.9c0.4,0.3,1.3,0.6,2.7,1c1.4,0.3,2.5,0.7,3.2,1
					c0.7,0.4,1.2,0.8,1.6,1.5c0.4,0.6,0.6,1.4,0.6,2.3c0,0.8-0.2,1.6-0.7,2.3c-0.5,0.7-1.1,1.3-2,1.6c-0.8,0.4-1.9,0.5-3.2,0.5
					c-1.8,0-3.2-0.4-4.2-1.3C267.1,97.8,266.6,96.5,266.4,94.9"/>
				
					<polygon style="clip-path:url(#SVGID_00000042015086508591350750000002699434743253086901_);fill-rule:evenodd;clip-rule:evenodd;fill:#72808A;" points="
					32,36.7 16,36.7 16,20.8 0.1,20.8 0.1,68.6 48,68.6 48,52.7 32,52.7 				"/>
				
					<polygon style="clip-path:url(#SVGID_00000042015086508591350750000002699434743253086901_);fill-rule:evenodd;clip-rule:evenodd;fill:#72808A;" points="
					16,4.8 16,20.8 32,20.8 32,36.7 48,36.7 48,52.7 63.9,52.7 63.9,4.8 				"/>
			</g>
		</g>
	</g>
	<line class="st3" x1="315.3" y1="2.8" x2="315.3" y2="104.2"/>
	<g id="AGP_CMYK_00000048495172586215260690000007555499228920819609_">
		<g>
			<defs>
				<rect id="SVGID_00000028314339888189150270000004890625475234514322_" x="352.1" y="0" width="273.2" height="99.8"/>
			</defs>
			<clipPath id="SVGID_00000041985199242600322790000017998756310899561151_">
				<use xlink:href="#SVGID_00000028314339888189150270000004890625475234514322_"  style="overflow:visible;"/>
			</clipPath>
			<g style="clip-path:url(#SVGID_00000041985199242600322790000017998756310899561151_);">
				<defs>
					<rect id="SVGID_00000018212416175627177900000002124821637259288983_" x="352.1" y="0" width="273.2" height="99.8"/>
				</defs>
				<clipPath id="SVGID_00000158714633588541012590000008839903032441552810_">
					<use xlink:href="#SVGID_00000018212416175627177900000002124821637259288983_"  style="overflow:visible;"/>
				</clipPath>
				<path style="clip-path:url(#SVGID_00000158714633588541012590000008839903032441552810_);" d="M358.3,98h-3.7l-0.6,1.7h-2
					l3.2-9.2h2.3l3.2,9.2h-2L358.3,98z M357.7,96.3l-1.3-3.8l-1.3,3.8H357.7z M367,96.5h-1.4v3.2h-1.8v-9.2h3.7
					c1.7,0,3.1,1.4,3.1,3.1c0,1.2-0.7,2.2-1.8,2.7l2,3.5h-2L367,96.5z M365.7,94.9h1.9c0.7,0,1.3-0.6,1.3-1.4c0-0.8-0.6-1.4-1.3-1.4
					h-1.9V94.9z M373.5,95.1c0-2.7,2-4.8,4.8-4.8c1.7,0,3.2,0.9,4,2.2l-1.6,0.9c-0.4-0.8-1.3-1.3-2.4-1.3c-1.8,0-3,1.3-3,3
					c0,1.8,1.2,3,3,3c1.1,0,2-0.5,2.4-1.3l1.6,0.9c-0.8,1.3-2.3,2.2-4,2.2C375.5,99.8,373.5,97.7,373.5,95.1 M392.5,90.4v9.2h-1.8
					v-3.8h-3.4v3.8h-1.8v-9.2h1.8v3.7h3.4v-3.7H392.5z M398.2,99.7h-1.8v-9.2h1.8V99.7z M408.1,92.2h-2.5v7.5h-1.8v-7.5h-2.5v-1.7
					h6.8V92.2z M416.9,97.9v1.7h-5.7v-9.2h5.6v1.7h-3.8v2h3.5v1.7h-3.5v2.1H416.9z M419.8,95.1c0-2.7,2-4.8,4.8-4.8
					c1.7,0,3.2,0.9,4,2.2l-1.6,0.9c-0.4-0.8-1.3-1.3-2.4-1.3c-1.8,0-3,1.3-3,3c0,1.8,1.2,3,3,3c1.1,0,2-0.5,2.4-1.3l1.6,0.9
					c-0.8,1.3-2.3,2.2-4,2.2C421.8,99.8,419.8,97.7,419.8,95.1 M437.9,92.2h-2.5v7.5h-1.8v-7.5h-2.5v-1.7h6.8V92.2z M440.9,96.6
					v-6.2h1.8v6.1c0,0.9,0.5,1.6,1.7,1.6s1.7-0.7,1.7-1.6v-6.1h1.8v6.2c0,2-1.5,3.2-3.5,3.2C442.4,99.8,440.9,98.6,440.9,96.6
					 M454.9,96.5h-1.4v3.2h-1.8v-9.2h3.7c1.7,0,3.1,1.4,3.1,3.1c0,1.2-0.7,2.2-1.8,2.7l2,3.5h-2L454.9,96.5z M453.6,94.9h1.9
					c0.7,0,1.3-0.6,1.3-1.4c0-0.8-0.6-1.4-1.3-1.4h-1.9V94.9z M467.3,98h-3.7l-0.6,1.7h-2l3.2-9.2h2.3l3.2,9.2h-2L467.3,98z
					 M466.7,96.3l-1.3-3.8l-1.3,3.8H466.7z M478.2,97.9v1.7h-5.3v-9.2h1.8v7.5H478.2z M495.8,95.4c0,2.7-1.9,4.4-4.5,4.4
					c-2.9,0-4.9-2.1-4.9-4.8c0-2.7,2.1-4.8,4.8-4.8c1.8,0,3.2,0.9,4,2.1l-1.6,0.9c-0.4-0.7-1.4-1.3-2.5-1.3c-1.8,0-3,1.3-3,3
					c0,1.7,1.2,3,3.1,3c1.4,0,2.4-0.7,2.7-1.8h-2.8v-1.6h4.6V95.4z M504.5,97.9v1.7h-5.3v-9.2h1.8v7.5H504.5z M513.3,98h-3.7
					l-0.6,1.7h-2l3.2-9.2h2.3l3.2,9.2h-2L513.3,98z M512.7,96.3l-1.3-3.8l-1.3,3.8H512.7z M518.1,97.6l1.6-0.9
					c0.3,0.9,1,1.4,2.1,1.4c1.1,0,1.5-0.5,1.5-1c0-0.7-0.6-0.9-2-1.3c-1.4-0.4-2.8-1-2.8-2.8c0-1.7,1.4-2.7,3-2.7
					c1.5,0,2.7,0.8,3.3,2.1l-1.5,0.9c-0.3-0.7-0.8-1.2-1.8-1.2c-0.8,0-1.2,0.4-1.2,0.9c0,0.6,0.4,0.9,1.8,1.3c1.5,0.5,3,0.9,3,2.8
					c0,1.7-1.4,2.8-3.3,2.8C519.9,99.8,518.6,98.9,518.1,97.6 M527.7,97.6l1.6-0.9c0.3,0.9,1,1.4,2.1,1.4c1.1,0,1.5-0.5,1.5-1
					c0-0.7-0.6-0.9-2-1.3c-1.4-0.4-2.8-1-2.8-2.8c0-1.7,1.4-2.7,3-2.7c1.5,0,2.7,0.8,3.3,2.1l-1.5,0.9c-0.3-0.7-0.8-1.2-1.8-1.2
					c-0.8,0-1.2,0.4-1.2,0.9c0,0.6,0.4,0.9,1.8,1.3c1.5,0.5,3,0.9,3,2.8c0,1.7-1.4,2.8-3.3,2.8C529.4,99.8,528.2,98.9,527.7,97.6
					 M549.9,93.5c0,1.7-1.4,3.1-3.1,3.1h-1.6v3h-1.8v-9.2h3.4C548.5,90.4,549.9,91.8,549.9,93.5 M548.1,93.5c0-0.8-0.6-1.4-1.3-1.4
					h-1.6v2.8h1.6C547.5,94.9,548.1,94.3,548.1,93.5 M556.4,96.5H555v3.2h-1.8v-9.2h3.7c1.7,0,3.1,1.4,3.1,3.1
					c0,1.2-0.7,2.2-1.8,2.7l2,3.5h-2L556.4,96.5z M555,94.9h1.9c0.7,0,1.3-0.6,1.3-1.4c0-0.8-0.6-1.4-1.3-1.4H555V94.9z M562.9,95.1
					c0-2.7,2.1-4.8,4.8-4.8c2.7,0,4.8,2.1,4.8,4.8c0,2.7-2.1,4.8-4.8,4.8C565,99.8,562.9,97.7,562.9,95.1 M570.6,95.1
					c0-1.8-1.3-3-3-3c-1.7,0-3,1.3-3,3c0,1.8,1.3,3,3,3C569.3,98.1,570.6,96.8,570.6,95.1 M583.9,95.1c0,2.6-1.9,4.6-4.4,4.6h-3.7
					v-9.2h3.7C582.1,90.4,583.9,92.5,583.9,95.1 M582.2,95.1c0-1.7-1.1-2.9-2.7-2.9h-1.8v5.7h1.8C581.1,97.9,582.2,96.8,582.2,95.1
					 M587.2,96.6v-6.2h1.8v6.1c0,0.9,0.5,1.6,1.7,1.6s1.7-0.7,1.7-1.6v-6.1h1.8v6.2c0,2-1.5,3.2-3.5,3.2
					C588.7,99.8,587.2,98.6,587.2,96.6 M597.6,95.1c0-2.7,2-4.8,4.8-4.8c1.7,0,3.2,0.9,4,2.2l-1.6,0.9c-0.4-0.8-1.3-1.3-2.4-1.3
					c-1.8,0-3,1.3-3,3c0,1.8,1.2,3,3,3c1.1,0,2-0.5,2.4-1.3l1.6,0.9c-0.8,1.3-2.3,2.2-4,2.2C599.6,99.8,597.6,97.7,597.6,95.1
					 M615.6,92.2h-2.5v7.5h-1.8v-7.5h-2.5v-1.7h6.8V92.2z M618,97.6l1.6-0.9c0.3,0.9,1,1.4,2.1,1.4c1.1,0,1.5-0.5,1.5-1
					c0-0.7-0.6-0.9-2-1.3c-1.4-0.4-2.8-1-2.8-2.8c0-1.7,1.4-2.7,3-2.7c1.5,0,2.7,0.8,3.3,2.1l-1.5,0.9c-0.3-0.7-0.8-1.2-1.8-1.2
					c-0.8,0-1.2,0.4-1.2,0.9c0,0.6,0.4,0.9,1.8,1.3c1.5,0.5,3,0.9,3,2.8c0,1.7-1.4,2.8-3.3,2.8C619.8,99.8,618.5,98.9,618,97.6
					 M453.7,4.7h11.3l30.4,69.6h-12.8l-7-16.7h-32.7l-7.1,16.7h-12.4L453.7,4.7z M471,46.8l-11.9-27.6l-11.8,27.6H471z M495.3,39.9
					v-0.2c0-19.3,14.8-35.7,35.6-35.7c12,0,19.4,3.4,26.5,9.4l-7.7,9.2c-5.3-4.5-10.6-7.4-19.3-7.4c-12.7,0-22.4,11.2-22.4,24.4v0.2
					c0,14.2,9.4,24.7,23.5,24.7c6.5,0,12.4-2.1,16.7-5.2V46.2h-17.7V35.7h29.4v29c-6.8,5.8-16.6,10.8-28.8,10.8
					C509.5,75.5,495.3,60.1,495.3,39.9 M571.8,4.7H599c16.2,0,26.3,9.2,26.3,23.1V28c0,15.5-12.4,23.6-27.6,23.6h-13.7v22.7h-12.1
					V4.7z M598,40.6c9.2,0,14.9-5.1,14.9-12.3v-0.2c0-8.1-5.8-12.3-14.9-12.3h-14.1v24.9H598z"/>
				<path style="clip-path:url(#SVGID_00000158714633588541012590000008839903032441552810_);fill:#B09160;" d="M409.6,14v60.3h-8.1
					h-8.1V4.7L409.6,14z M353.1,28v46.3h8.1h8.1V18.7L353.1,28z"/>
				
					<path style="clip-path:url(#SVGID_00000158714633588541012590000008839903032441552810_);fill-rule:evenodd;clip-rule:evenodd;" d="
					M624.7,67.4c-0.3-0.6-0.6-1.1-1-1.5c-0.4-0.4-1-0.8-1.5-1c-0.6-0.3-1.2-0.4-1.9-0.4c-0.7,0-1.3,0.1-1.9,0.4
					c-0.6,0.3-1.1,0.6-1.5,1c-0.4,0.4-0.8,1-1,1.5c-0.3,0.6-0.4,1.2-0.4,1.9c0,0.7,0.1,1.3,0.4,1.9c0.3,0.6,0.6,1.1,1,1.5
					c0.4,0.4,1,0.8,1.5,1c0.6,0.3,1.2,0.4,1.9,0.4c0.7,0,1.3-0.1,1.9-0.4c0.6-0.3,1.1-0.6,1.5-1c0.4-0.4,0.8-1,1-1.5
					c0.3-0.6,0.4-1.2,0.4-1.9C625,68.6,624.9,68,624.7,67.4 M624,71c-0.2,0.5-0.5,1-0.8,1.3c-0.4,0.4-0.8,0.7-1.3,0.9
					c-0.5,0.2-1,0.3-1.6,0.3c-0.6,0-1.1-0.1-1.6-0.3c-0.5-0.2-0.9-0.5-1.3-0.9c-0.4-0.4-0.6-0.8-0.9-1.3c-0.2-0.5-0.3-1.1-0.3-1.7
					c0-0.6,0.1-1.1,0.3-1.7c0.2-0.5,0.5-1,0.9-1.3c0.4-0.4,0.8-0.7,1.3-0.9c0.5-0.2,1.1-0.3,1.6-0.3c0.6,0,1.1,0.1,1.6,0.3
					c0.5,0.2,0.9,0.5,1.3,0.9c0.4,0.4,0.6,0.8,0.8,1.3c0.2,0.5,0.3,1.1,0.3,1.7C624.3,69.9,624.2,70.5,624,71"/>
				
					<path style="clip-path:url(#SVGID_00000158714633588541012590000008839903032441552810_);fill-rule:evenodd;clip-rule:evenodd;" d="
					M621.6,69.4c0.2-0.1,0.4-0.1,0.5-0.3c0.2-0.1,0.3-0.3,0.4-0.5c0.1-0.2,0.1-0.4,0.1-0.7c0-0.4-0.1-0.8-0.4-1.1
					c-0.3-0.3-0.8-0.4-1.5-0.4h-2.4V72h0.7v-2.5h1.2l1.6,2.5h0.8l-1.6-2.5C621.2,69.5,621.4,69.5,621.6,69.4 M620,69h-1v-1.9h1.6
					c0.2,0,0.3,0,0.5,0c0.2,0,0.3,0.1,0.4,0.1c0.1,0.1,0.2,0.2,0.3,0.3c0.1,0.1,0.1,0.3,0.1,0.5c0,0.3-0.1,0.5-0.2,0.6
					c-0.1,0.1-0.3,0.2-0.5,0.3c-0.2,0.1-0.4,0.1-0.6,0.1H620z"/>
				
					<polygon style="clip-path:url(#SVGID_00000158714633588541012590000008839903032441552810_);fill-rule:evenodd;clip-rule:evenodd;fill:#BEB79B;" points="
					377.3,4.7 377.3,74.3 385.3,74.3 385.3,0 				"/>
			</g>
		</g>
	</g>
</g>
</svg>
